<?xml version="1.0" encoding="UTF-8" standalone="no"?>
<!-- Created with Inkscape (http://www.inkscape.org/) -->

<svg
   version="1.1"
   id="svg52"
   width="66.048645"
   height="88.76709"
   viewBox="0 0 66.048645 88.767087"
   sodipodi:docname="Propuestas.pdf"
   xmlns:inkscape="http://www.inkscape.org/namespaces/inkscape"
   xmlns:sodipodi="http://sodipodi.sourceforge.net/DTD/sodipodi-0.dtd"
   xmlns="http://www.w3.org/2000/svg"
   xmlns:svg="http://www.w3.org/2000/svg">
  <defs
     id="defs56">
    <clipPath
       clipPathUnits="userSpaceOnUse"
       id="clipPath124">
      <path
         d="M 0,1146.591 H 727.413 V 0 H 0 Z"
         id="path122" />
    </clipPath>
  </defs>
  <sodipodi:namedview
     id="namedview54"
     pagecolor="#ffffff"
     bordercolor="#000000"
     borderopacity="0.25"
     inkscape:showpageshadow="2"
     inkscape:pageopacity="0.0"
     inkscape:pagecheckerboard="0"
     inkscape:deskcolor="#d1d1d1"
     showgrid="false" />
  <g
     id="g60"
     inkscape:groupmode="layer"
     inkscape:label="Page 1"
     transform="matrix(1.3333333,0,0,-1.3333333,-538.37293,358.84538)">
    <g
       id="g120"
       clip-path="url(#clipPath124)"
       transform="translate(306.05777,-354.23673)">
      <g
         id="g616">
        <g
           id="g166"
           transform="translate(136.29921,577.90984)">
          <path
             d="M 0,0 C 4.158,-0.025 7.47,3.225 7.493,7.354 7.516,11.443 4.156,14.812 0.062,14.806 -3.953,14.8 -7.282,11.5 -7.315,7.491 -7.352,3.289 -4.165,0.026 0,0 m 4.466,-2.834 c -6.213,-1.078 -9.66,-0.369 -13.626,3.05 -2.004,1.727 -3.711,3.795 -5.618,5.64 -2.579,2.495 -5.025,5.19 -7.893,7.303 -2.67,1.968 -5.87,2.495 -8.971,0.526 -3.02,-1.917 -3.804,-4.751 -3.332,-8.141 1.405,-10.074 10.06,-19.874 20.476,-23.035 0.511,-0.155 1.175,-0.048 1.7,0.132 7.529,2.585 13.137,7.467 17.264,14.525 m -15.327,9.565 c 0.21,5.236 2.39,8.821 6.875,10.686 3.851,1.603 7.58,1.015 10.845,-1.595 C 10.072,13.254 11.485,9.782 10.783,5.75 8.414,-7.842 0.21,-16.426 -12.585,-20.914 c -0.67,-0.235 -1.55,-0.276 -2.215,-0.055 -12.538,4.169 -20.731,12.452 -23.49,25.538 -1.585,7.519 3.575,13.819 10.877,13.667 3.319,-0.07 6.212,-1.437 8.698,-3.553 1.659,-1.412 3.146,-3.03 4.683,-4.582 0.989,-0.999 1.929,-2.046 3.171,-3.37"
             style="fill:#382964;fill-opacity:1;fill-rule:nonzero;stroke:none"
             id="path168" />
        </g>
        <g
           id="g170"
           transform="translate(122.36861,619.90784)">
          <path
             d="m 0,0 c -5.35,0.017 -9.728,-4.313 -9.727,-9.621 0.002,-5.524 4.257,-9.841 9.695,-9.836 5.355,0.006 9.766,4.351 9.767,9.622 C 9.736,-4.372 5.427,-0.018 0,0 m 0.045,-22.909 c -7.259,-0.056 -13.185,5.818 -13.234,13.118 -0.048,7.189 5.787,13.17 12.931,13.253 C 7.2,3.548 13.146,-2.353 13.154,-9.851 13.162,-16.994 7.281,-22.853 0.045,-22.909"
             style="fill:#382964;fill-opacity:1;fill-rule:nonzero;stroke:none"
             id="path172" />
        </g>
      </g>
    </g>
  </g>
</svg>
